<svg xmlns="http://www.w3.org/2000/svg" viewBox="0 0 1020.98 1021.07"><defs><style>.a{fill:#a9d800;stroke:#000;stroke-miterlimit:10;}</style></defs><title>Extension</title><rect class="a" x="0.5" y="0.5" width="1019.98" height="1020.07" rx="40" ry="40"/><path d="M956.3,839.89,787.66,671.24A40.57,40.57,0,0,0,758.9,659.4H731.33a350.12,350.12,0,0,0,74.43-216.52C805.76,248.53,648.27,91,453.92,91S102.08,248.53,102.08,442.88,259.56,794.72,453.92,794.72a350.12,350.12,0,0,0,216.52-74.43v27.57a40.57,40.57,0,0,0,11.84,28.76L850.92,945.27a40.43,40.43,0,0,0,57.34,0l47.87-47.87A40.79,40.79,0,0,0,956.3,839.89ZM453.92,659.4A216.52,216.52,0,1,1,670.43,442.88,216.39,216.39,0,0,1,453.92,659.4Z" transform="translate(-1.5 -1.5)"/></svg>